<svg width="141" height="86" viewBox="0 0 141 86" fill="none" xmlns="http://www.w3.org/2000/svg">
<g filter="url(#filter0_d)">
<path d="M11.5135 4.35394C14.2189 10.5199 14.2336 16.4297 15.1528 22.9236C15.8253 27.6748 16.9059 32.729 16.467 37.5306C15.8571 44.202 14.4021 57.2765 7.8742 61.9523C0.626358 67.1438 7.08452 51.3021 7.8742 49.1424C10.809 41.1162 11.996 32.6883 13.5353 24.4442C15.0405 16.3826 17.9615 1.03627 30.1648 1.03627C40.9847 1.03627 48.3578 11.1687 53.3652 18.2697C63.6137 32.8029 58.2769 52.8721 39.9201 58.4503C31.4369 61.0282 23.3559 62.4131 14.2429 62.4131C9.81823 62.4131 1 63.2425 1 63.2425C1 63.2425 7.25301 64.0719 10.4015 64.0719C23.5802 64.0719 40.2487 64.1487 50.6358 55.7317C63.02 45.6963 60.7786 29.5309 51.5456 18.6383C44.2184 9.99402 33.9944 6.01277 21.9259 6.01277C16.7392 6.01277 15.1528 5.05765 15.1528 10.3442C15.1528 16.7692 14.4804 23.5036 15.3549 29.8815C15.8666 33.6133 17.2925 37.9371 16.7702 41.6777C15.9002 47.9094 13.3331 54.898 13.3331 61.1229C13.3331 65.1439 12.3424 64.9013 17.4273 64.9013C26.3537 64.9013 33.6225 63.7769 41.5376 60.5699C43.7166 59.6871 45.6416 58.7565 47.4514 57.4366C49.6062 55.8651 55.6193 51.7228 52.8598 51.7228C50.6208 51.7228 47.474 55.6211 45.5812 56.6072C42.4386 58.2442 38.5951 58.8347 35.6237 60.3395C33.1197 61.6077 30.8779 62.4131 27.8903 62.4131C26.3703 62.4131 19.0627 63.2425 24.251 63.2425C31.2745 63.2425 38.5459 65.7307 45.6318 65.7307C52.8354 65.7307 59.8484 69.8778 67.0125 69.8778C70.6963 69.8778 83.2324 71.4151 84.3497 67.8504C85.0855 65.5027 87.0286 64.2723 87.0286 61.5837C87.0286 58.0251 86.535 54.1055 87.2308 50.6169C89.9245 37.1106 93.6656 23.0588 95.1664 9.37651C95.8856 2.82055 94.727 2.6951 87.9384 2.6951C80.5198 2.6951 73.4414 1.03627 66.1027 1.03627C64.1002 1.03627 62.9343 0.807938 65.85 1.49706C74.446 3.5287 82.7579 6.42115 91.4766 8.04023C100.606 9.73564 110.872 12.6481 120.237 12.6481C121.611 12.6481 130.159 12.6481 125.747 12.6481C117.963 12.6481 110.4 8.98839 102.698 7.85592C95.0757 6.73519 87.4569 5.00583 79.8006 4.30786C76.8406 4.03802 70.1395 4.46308 67.4675 3.10981C64.2377 1.47407 69.0722 3.91179 70.854 4.16962C76.1049 4.92943 81.275 5.55054 86.5232 6.19708C99.2979 7.77084 124.837 10.9893 124.837 10.9893C124.837 10.9893 111.093 8.91663 104.265 7.6716C99.507 6.80415 95.4472 5.51112 92.8919 9.8373C91.1669 12.7577 91.1307 16.2466 89.5559 19.2834C87.3091 23.6162 84.9629 27.8178 84.097 32.5541C82.6693 40.3628 83.8967 49.0256 85.4111 56.7915C86.2723 61.2076 87.0286 64.9634 87.0286 69.4631C87.0286 76.9601 91.6266 54.9855 92.4875 47.5297C93.6586 37.3876 95.217 27.8998 95.217 17.6246C95.217 15.4618 95.068 11.8583 94.105 16.1501C93.0737 20.7462 92.4179 25.4128 91.7799 30.0658C89.9148 43.6678 85.209 56.1155 85.209 69.8778" stroke="black" stroke-width="2" stroke-linecap="round" stroke-linejoin="round"/>
</g>
<defs>
<filter id="filter0_d" x="0" y="-0.00012207" width="141" height="86.0001" filterUnits="userSpaceOnUse" color-interpolation-filters="sRGB">
<feFlood flood-opacity="0" result="BackgroundImageFix"/>
<feColorMatrix in="SourceAlpha" type="matrix" values="0 0 0 0 0 0 0 0 0 0 0 0 0 0 0 0 0 0 127 0"/>
<feOffset dx="10" dy="10"/>
<feGaussianBlur stdDeviation="2"/>
<feColorMatrix type="matrix" values="0 0 0 0 0 0 0 0 0 0 0 0 0 0 0 0 0 0 0.25 0"/>
<feBlend mode="normal" in2="BackgroundImageFix" result="effect1_dropShadow"/>
<feBlend mode="normal" in="SourceGraphic" in2="effect1_dropShadow" result="shape"/>
</filter>
</defs>
</svg>
